<mxfile host="app.diagrams.net" agent="Mozilla/5.0 (Macintosh; Intel Mac OS X 10_15_7) AppleWebKit/537.36 (KHTML, like Gecko) Chrome/135.0.0.0 Safari/537.36" version="26.2.12">
  <diagram id="JMeby6pZQcnF575_LC62" name="PÃ¡gina-1">
    <mxGraphModel dx="912" dy="690" grid="1" gridSize="10" guides="1" tooltips="1" connect="1" arrows="1" fold="1" page="1" pageScale="1" pageWidth="827" pageHeight="1169" math="0" shadow="0">
      <root>
        <mxCell id="0" />
        <mxCell id="1" parent="0" />
        <mxCell id="r6UZzSCYkrICqr5OLR6d-50" style="edgeStyle=orthogonalEdgeStyle;rounded=0;orthogonalLoop=1;jettySize=auto;html=1;" edge="1" parent="1" source="r6UZzSCYkrICqr5OLR6d-1" target="r6UZzSCYkrICqr5OLR6d-4">
          <mxGeometry relative="1" as="geometry" />
        </mxCell>
        <mxCell id="r6UZzSCYkrICqr5OLR6d-1" value="Apps" style="swimlane;whiteSpace=wrap;html=1;" vertex="1" parent="1">
          <mxGeometry x="150" y="350" width="200" height="170" as="geometry">
            <mxRectangle x="130" y="350" width="70" height="30" as="alternateBounds" />
          </mxGeometry>
        </mxCell>
        <mxCell id="r6UZzSCYkrICqr5OLR6d-2" value="User" style="whiteSpace=wrap;html=1;" vertex="1" parent="r6UZzSCYkrICqr5OLR6d-1">
          <mxGeometry x="10" y="30" width="180" height="60" as="geometry" />
        </mxCell>
        <mxCell id="r6UZzSCYkrICqr5OLR6d-3" value="Workers" style="whiteSpace=wrap;html=1;" vertex="1" parent="r6UZzSCYkrICqr5OLR6d-1">
          <mxGeometry x="10" y="100" width="180" height="60" as="geometry" />
        </mxCell>
        <mxCell id="r6UZzSCYkrICqr5OLR6d-4" value="Libs" style="swimlane;whiteSpace=wrap;html=1;startSize=23;" vertex="1" parent="1">
          <mxGeometry x="540" y="280" width="200" height="310" as="geometry">
            <mxRectangle x="130" y="350" width="70" height="30" as="alternateBounds" />
          </mxGeometry>
        </mxCell>
        <mxCell id="r6UZzSCYkrICqr5OLR6d-5" value="Application" style="whiteSpace=wrap;html=1;fillColor=#b1ddf0;strokeColor=#10739e;" vertex="1" parent="r6UZzSCYkrICqr5OLR6d-4">
          <mxGeometry x="10" y="30" width="180" height="60" as="geometry" />
        </mxCell>
        <mxCell id="r6UZzSCYkrICqr5OLR6d-6" value="Domain" style="whiteSpace=wrap;html=1;fillColor=#fad7ac;strokeColor=#b46504;" vertex="1" parent="r6UZzSCYkrICqr5OLR6d-4">
          <mxGeometry x="10" y="100" width="180" height="60" as="geometry" />
        </mxCell>
        <mxCell id="r6UZzSCYkrICqr5OLR6d-7" value="Infrastructure" style="whiteSpace=wrap;html=1;fillColor=#fad9d5;strokeColor=#ae4132;" vertex="1" parent="r6UZzSCYkrICqr5OLR6d-4">
          <mxGeometry x="10" y="170" width="180" height="60" as="geometry" />
        </mxCell>
        <mxCell id="r6UZzSCYkrICqr5OLR6d-8" value="Shared" style="whiteSpace=wrap;html=1;fillColor=#b0e3e6;strokeColor=#0e8088;" vertex="1" parent="r6UZzSCYkrICqr5OLR6d-4">
          <mxGeometry x="10" y="240" width="180" height="60" as="geometry" />
        </mxCell>
      </root>
    </mxGraphModel>
  </diagram>
</mxfile>
